<svg width="135" height="45" viewBox="0 0 135 45" fill="none" xmlns="http://www.w3.org/2000/svg">
<g clip-path="url(#clip0_334_29179)">
<path d="M123.902 0.00014625H10.7265C10.314 0.00014625 9.90639 0.00014625 9.49494 0.00239625C9.15053 0.00464625 8.80885 0.0111825 8.46112 0.0166837C7.7057 0.0255733 6.95206 0.092032 6.20674 0.215482C5.46246 0.34162 4.74151 0.579426 4.06825 0.920857C3.39581 1.26518 2.78139 1.71258 2.24727 2.24685C1.71034 2.77961 1.26277 3.39541 0.921769 4.07058C0.579825 4.74439 0.342721 5.46645 0.218644 6.21181C0.0933873 6.95623 0.0259857 7.70923 0.0170438 8.46406C0.00660375 8.80899 0.00550125 9.15506 0 9.50003V35.5036C0.00550125 35.8529 0.00660375 36.1913 0.0170438 36.5407C0.0259884 37.2955 0.0933901 38.0485 0.218644 38.7928C0.342378 39.5386 0.579497 40.2611 0.921769 40.9352C1.26262 41.6082 1.71025 42.2215 2.24727 42.7513C2.77936 43.2879 3.39418 43.7356 4.06825 44.0773C4.7415 44.4196 5.46238 44.6589 6.20674 44.787C6.95218 44.9094 7.70575 44.9759 8.46112 44.9859C8.80885 44.9935 9.15053 44.9979 9.49494 44.9979C9.90638 45.0001 10.314 45.0001 10.7265 45.0001H123.902C124.306 45.0001 124.717 45.0001 125.121 44.9979C125.464 44.9979 125.815 44.9935 126.158 44.9859C126.912 44.9764 127.664 44.9099 128.408 44.787C129.155 44.658 129.878 44.4188 130.555 44.0773C131.228 43.7354 131.843 43.2877 132.374 42.7513C132.91 42.2194 133.359 41.6065 133.704 40.9352C134.043 40.2606 134.278 39.5382 134.4 38.7928C134.526 38.0484 134.595 37.2956 134.609 36.5407C134.613 36.1913 134.613 35.8529 134.613 35.5036C134.622 35.0949 134.622 34.6884 134.622 34.273V10.7283C134.622 10.3163 134.622 9.90761 134.613 9.50003C134.613 9.15506 134.613 8.80899 134.609 8.46402C134.595 7.70912 134.526 6.95629 134.4 6.21177C134.278 5.46684 134.043 4.74484 133.704 4.07053C133.009 2.71724 131.908 1.61567 130.555 0.920756C129.878 0.580159 129.155 0.342417 128.408 0.215381C127.664 0.0913869 126.912 0.024905 126.158 0.0165262C125.815 0.0110362 125.464 0.00444375 125.121 0.00225C124.717 0 124.306 0 123.902 0V0.00014625Z" fill="white"/>
<path d="M28.1197 22.3758C28.1323 21.3993 28.3917 20.4419 28.8737 19.5926C29.3557 18.7434 30.0447 18.0298 30.8766 17.5184C30.3481 16.7636 29.6509 16.1425 28.8404 15.7043C28.0299 15.2661 27.1284 15.0229 26.2074 14.9941C24.2429 14.7879 22.3384 16.1697 21.3373 16.1697C20.3168 16.1697 18.7755 15.0146 17.1158 15.0487C16.0422 15.0834 14.9959 15.3956 14.0789 15.9549C13.1618 16.5142 12.4053 17.3014 11.883 18.24C9.62048 22.1573 11.3081 27.9143 13.4754 31.0808C14.5598 32.6313 15.8271 34.3632 17.4854 34.3018C19.1081 34.2345 19.7141 33.2671 21.6728 33.2671C23.6134 33.2671 24.182 34.3018 25.8739 34.2628C27.6151 34.2345 28.7122 32.7054 29.7585 31.1402C30.5376 30.0354 31.1371 28.8144 31.5349 27.5223C30.5233 27.0945 29.66 26.3783 29.0527 25.4631C28.4454 24.5479 28.1209 23.4742 28.1197 22.3758Z" fill="#282739"/>
<path d="M24.9231 12.9118C25.8725 11.772 26.3402 10.3071 26.227 8.82812C24.7765 8.98047 23.4367 9.67369 22.4745 10.7697C22.004 11.3051 21.6437 11.928 21.4141 12.6027C21.1845 13.2775 21.0902 13.9909 21.1364 14.7021C21.8619 14.7096 22.5797 14.5523 23.2356 14.2422C23.8915 13.9321 24.4685 13.4772 24.9231 12.9118Z" fill="#282739"/>
<path d="M47.5898 30.5326H42.2648L40.986 34.3086H38.7305L43.7743 20.3384H46.1177L51.1615 34.3086H48.8675L47.5898 30.5326ZM42.8163 28.7902H47.0373L44.9565 22.662H44.8982L42.8163 28.7902Z" fill="#282739"/>
<path d="M62.0553 29.2164C62.0553 32.3815 60.3612 34.4151 57.8047 34.4151C57.1571 34.449 56.513 34.2998 55.9463 33.9846C55.3795 33.6695 54.9129 33.2011 54.6 32.6331H54.5516V37.678H52.4609V24.1231H54.4846V25.8172H54.5231C54.8504 25.2519 55.3248 24.786 55.8959 24.4689C56.467 24.1518 57.1134 23.9955 57.7662 24.0165C60.3513 24.0165 62.0553 26.06 62.0553 29.2164ZM59.9064 29.2164C59.9064 27.1542 58.8407 25.7985 57.2147 25.7985C55.6173 25.7985 54.5429 27.1828 54.5429 29.2164C54.5429 31.2686 55.6173 32.643 57.2147 32.643C58.8407 32.643 59.9064 31.2972 59.9064 29.2164H59.9064Z" fill="#282739"/>
<path d="M73.2668 29.2164C73.2668 32.3815 71.5722 34.4151 69.0156 34.4151C68.368 34.449 67.724 34.2998 67.1572 33.9846C66.5904 33.6695 66.1239 33.2011 65.8109 32.6331H65.7626V37.678H63.6719V24.1231H65.6956V25.8172H65.734C66.0613 25.2519 66.5358 24.786 67.1069 24.4689C67.6779 24.1518 68.3243 23.9955 68.9772 24.0165C71.5623 24.0165 73.2668 26.06 73.2668 29.2164ZM71.1173 29.2164C71.1173 27.1542 70.0517 25.7985 68.4257 25.7985C66.8283 25.7985 65.7538 27.1828 65.7538 29.2164C65.7538 31.2686 66.8283 32.643 68.4257 32.643C70.0517 32.643 71.1173 31.2972 71.1173 29.2164Z" fill="#282739"/>
<path d="M80.6753 30.4162C80.8303 31.8016 82.1761 32.7112 84.0152 32.7112C85.7774 32.7112 87.0452 31.8015 87.0452 30.5524C87.0452 29.468 86.2806 28.8188 84.47 28.3738L82.6595 27.9376C80.0942 27.318 78.9033 26.1183 78.9033 24.1715C78.9033 21.7611 81.0038 20.1055 83.9855 20.1055C86.9387 20.1055 88.9623 21.7611 89.0305 24.1715H86.92C86.7936 22.7773 85.6412 21.9358 83.957 21.9358C82.2727 21.9358 81.1203 22.7872 81.1203 24.0265C81.1203 25.0142 81.8564 25.5953 83.657 26.0402L85.1962 26.4182C88.0625 27.096 89.2524 28.2474 89.2524 30.2909C89.2524 32.9045 87.1715 34.5415 83.8602 34.5415C80.7621 34.5415 78.6703 32.943 78.5352 30.4161L80.6753 30.4162Z" fill="#282739"/>
<path d="M93.7651 21.7129V24.1233H95.702V25.7789H93.7651V31.394C93.7651 32.2664 94.153 32.6729 95.0044 32.6729C95.2343 32.6688 95.4639 32.6527 95.6921 32.6245V34.2702C95.3093 34.3418 94.9203 34.3742 94.5309 34.3669C92.4688 34.3669 91.6645 33.5924 91.6645 31.617V25.7789H90.1836V24.1233H91.6645V21.7129H93.7651Z" fill="#282739"/>
<path d="M96.8242 29.2165C96.8242 26.0118 98.7117 23.998 101.655 23.998C104.608 23.998 106.487 26.0118 106.487 29.2165C106.487 32.4301 104.618 34.4351 101.655 34.4351C98.693 34.4351 96.8242 32.43 96.8242 29.2165ZM104.356 29.2165C104.356 27.0182 103.349 25.7207 101.655 25.7207C99.9608 25.7207 98.9534 27.0281 98.9534 29.2165C98.9534 31.4237 99.9608 32.7113 101.655 32.7113C103.349 32.7113 104.356 31.4237 104.356 29.2165H104.356Z" fill="#282739"/>
<path d="M108.207 24.123H110.201V25.8566H110.249C110.384 25.3152 110.702 24.8367 111.148 24.5016C111.594 24.1664 112.142 23.9951 112.699 24.0164C112.94 24.0156 113.181 24.0417 113.416 24.0944V26.05C113.112 25.957 112.794 25.9144 112.476 25.9237C112.173 25.9113 111.87 25.9649 111.589 26.0806C111.308 26.1964 111.055 26.3716 110.848 26.5942C110.641 26.8168 110.485 27.0816 110.39 27.3704C110.295 27.6591 110.263 27.965 110.298 28.267V34.3084H108.207L108.207 24.123Z" fill="#282739"/>
<path d="M123.055 31.3171C122.774 33.1661 120.973 34.4351 118.669 34.4351C115.706 34.4351 113.867 32.4498 113.867 29.2649C113.867 26.0701 115.716 23.998 118.581 23.998C121.399 23.998 123.171 25.9338 123.171 29.0221V29.7384H115.978V29.8647C115.944 30.2396 115.991 30.6172 116.115 30.9725C116.239 31.3279 116.437 31.6527 116.697 31.9256C116.956 32.1985 117.27 32.4131 117.618 32.5552C117.967 32.6973 118.342 32.7636 118.718 32.7498C119.212 32.796 119.708 32.6816 120.131 32.4235C120.555 32.1654 120.884 31.7773 121.07 31.3171L123.055 31.3171ZM115.988 28.2772H121.08C121.098 27.9402 121.047 27.6029 120.93 27.2865C120.812 26.9702 120.63 26.6816 120.395 26.4388C120.161 26.1961 119.879 26.0045 119.566 25.876C119.254 25.7475 118.919 25.6849 118.581 25.6921C118.241 25.6901 117.903 25.7555 117.588 25.8846C117.273 26.0137 116.987 26.2039 116.746 26.4442C116.505 26.6846 116.314 26.9703 116.183 27.2849C116.053 27.5995 115.987 27.9368 115.988 28.2772V28.2772Z" fill="#282739"/>
<path d="M41.329 12.6601H42.2266C42.3811 12.6793 42.5379 12.6663 42.6871 12.622C42.8364 12.5776 42.9748 12.5028 43.0937 12.4022C43.2126 12.3017 43.3094 12.1776 43.378 12.0378C43.4466 11.898 43.4855 11.7456 43.4922 11.59C43.4922 10.9709 43.0264 10.571 42.2364 10.571C42.0781 10.5489 41.917 10.5587 41.7626 10.5999C41.6081 10.6411 41.4635 10.7128 41.3372 10.8108C41.211 10.9088 41.1056 11.0311 41.0274 11.1705C40.9492 11.3099 40.8997 11.4636 40.8818 11.6224H39.8963C39.9133 11.3341 39.9894 11.0523 40.12 10.7947C40.2506 10.537 40.4328 10.309 40.6553 10.1249C40.8778 9.9407 41.1358 9.80431 41.4133 9.72419C41.6908 9.64407 41.9819 9.62193 42.2683 9.65915C43.5899 9.65915 44.5205 10.3991 44.5205 11.4642C44.5236 11.821 44.4043 12.1681 44.1823 12.4475C43.9604 12.727 43.6493 12.9218 43.301 12.9995V13.0786C43.7139 13.097 44.1027 13.278 44.3825 13.5822C44.6623 13.8863 44.8103 14.2889 44.7941 14.7019C44.7635 14.9988 44.674 15.2865 44.5308 15.5484C44.3876 15.8102 44.1935 16.0408 43.96 16.2267C43.7265 16.4126 43.4583 16.55 43.171 16.6308C42.8837 16.7117 42.5832 16.7343 42.287 16.6975C41.9902 16.738 41.6883 16.7183 41.3993 16.6396C41.1103 16.5609 40.8401 16.4248 40.6048 16.2394C40.3695 16.0541 40.1739 15.8232 40.0298 15.5607C39.8856 15.2981 39.7958 15.0092 39.7656 14.7112H40.7665C40.8269 15.3534 41.4169 15.7676 42.287 15.7676C43.1571 15.7676 43.7251 15.3023 43.7251 14.6464C43.7251 13.9812 43.1901 13.5714 42.2551 13.5714H41.329V12.6601Z" fill="#282739"/>
<path d="M45.9297 15.102C45.9297 14.1902 46.6097 13.6645 47.8138 13.5898L49.186 13.5107V13.0734C49.186 12.5384 48.8334 12.2363 48.1489 12.2363C47.5908 12.2363 47.2052 12.4412 47.0931 12.7993H46.1252C46.2274 11.9292 47.047 11.3711 48.1962 11.3711C49.4662 11.3711 50.1825 12.0033 50.1825 13.0734V16.5347H49.219V15.8228H49.1399C48.9793 16.0781 48.7539 16.2863 48.4866 16.426C48.2192 16.5658 47.9196 16.6321 47.6183 16.6181C47.4056 16.6402 47.1907 16.6176 46.9873 16.5515C46.784 16.4855 46.5967 16.3776 46.4376 16.2347C46.2785 16.0919 46.1511 15.9173 46.0636 15.7222C45.9762 15.5271 45.9305 15.3159 45.9297 15.102ZM49.186 14.6692V14.2457L47.9489 14.3248C47.2513 14.3714 46.9349 14.6088 46.9349 15.0553C46.9349 15.5113 47.3304 15.7766 47.8743 15.7766C48.0336 15.7927 48.1946 15.7766 48.3476 15.7293C48.5006 15.682 48.6425 15.6043 48.7649 15.501C48.8873 15.3977 48.9877 15.2708 49.06 15.1279C49.1324 14.985 49.1752 14.829 49.186 14.6692Z" fill="#282739"/>
<path d="M52.8357 12.3103V16.5345H51.8359V11.4688H55.1714V12.3102L52.8357 12.3103Z" fill="#282739"/>
<path d="M61.2307 14.0005C61.2307 15.61 60.4166 16.6191 59.1378 16.6191C58.8239 16.6405 58.5104 16.5718 58.2342 16.4211C57.958 16.2703 57.7306 16.0438 57.5789 15.7682H57.4998V18.2198H56.5V11.4698H57.4624V12.307H57.5371C57.6916 12.0217 57.922 11.7847 58.2027 11.6222C58.4834 11.4596 58.8036 11.3778 59.1279 11.3858C60.4166 11.3858 61.2307 12.3904 61.2307 14.0005ZM60.2024 14.0005C60.2024 12.9304 59.6959 12.2839 58.8489 12.2839C58.0074 12.2839 57.4811 12.9442 57.4811 14.0049C57.4811 15.0607 58.0073 15.7215 58.8445 15.7215C59.6959 15.7215 60.2024 15.075 60.2024 14.0005Z" fill="#282739"/>
<path d="M62.5633 18.3489V17.4882C62.6715 17.5019 62.7805 17.5081 62.8895 17.5068C63.1025 17.5226 63.3138 17.4592 63.4829 17.3287C63.652 17.1982 63.767 17.0099 63.8058 16.7999L63.8805 16.5532L62.0469 11.4688H63.1356L64.4057 15.4925H64.4848L65.7504 11.4688H66.8106L64.9221 16.7438C64.4892 17.9765 64.0102 18.372 62.9775 18.372C62.894 18.372 62.6567 18.3627 62.5633 18.3489Z" fill="#282739"/>
<path d="M67.5898 15.0971H68.5852C68.683 15.5437 69.1016 15.7766 69.6871 15.7766C70.3529 15.7766 70.7616 15.4833 70.7616 15.0273C70.7616 14.539 70.3947 14.3061 69.6871 14.3061H68.9291V13.5294H69.674C70.2782 13.5294 70.5858 13.297 70.5858 12.8735C70.5858 12.5016 70.2881 12.2176 69.674 12.2176C69.1147 12.2176 68.7061 12.4549 68.6412 12.8548H67.6777C67.7498 12.3953 67.9993 11.9824 68.3726 11.705C68.7459 11.4275 69.2132 11.3076 69.674 11.3711C70.8781 11.3711 71.5669 11.9155 71.5669 12.7713C71.5725 13.0097 71.4962 13.2427 71.3506 13.4315C71.205 13.6202 70.999 13.7533 70.7671 13.8084V13.8875C71.0432 13.9232 71.2967 14.0589 71.4793 14.269C71.662 14.4791 71.7612 14.749 71.7581 15.0274C71.7581 15.9904 70.9385 16.6275 69.6871 16.6275C68.5808 16.6275 67.6821 16.1205 67.5898 15.0971Z" fill="#282739"/>
<path d="M73.1992 16.5345V11.4688H74.1902V14.9531H74.2693L76.6039 11.4688H77.5948V16.5346H76.6039V13.0316H76.5292L74.1902 16.5346L73.1992 16.5345Z" fill="#282739"/>
<path d="M83.0507 12.3112H81.4555V16.5355H80.4546V12.3112H78.8594V11.4697H83.0507V12.3112Z" fill="#282739"/>
<path d="M88.4368 15.167C88.3005 15.6299 88.006 16.0303 87.6046 16.2982C87.2032 16.5661 86.7204 16.6844 86.2406 16.6325C85.9069 16.6413 85.5752 16.5774 85.2686 16.4452C84.9621 16.313 84.6879 16.1156 84.4653 15.8669C84.2426 15.6181 84.0768 15.3238 83.9793 15.0045C83.8817 14.6852 83.8549 14.3485 83.9005 14.0178C83.8561 13.686 83.8834 13.3486 83.9807 13.0284C84.078 12.7081 84.243 12.4125 84.4645 12.1615C84.6859 11.9106 84.9587 11.7101 85.2644 11.5738C85.5701 11.4374 85.9015 11.3683 86.2362 11.3712C87.6458 11.3712 88.4972 12.3342 88.4972 13.9249V14.2738H84.9201V14.3298C84.9042 14.5158 84.9275 14.703 84.9883 14.8794C85.0491 15.0558 85.1461 15.2176 85.2732 15.3542C85.4003 15.4909 85.5545 15.5995 85.726 15.673C85.8976 15.7465 86.0826 15.7833 86.2692 15.7811C86.5082 15.8096 86.7502 15.7665 86.9646 15.6572C87.1791 15.5478 87.3561 15.3772 87.4733 15.1669L88.4368 15.167ZM84.92 13.5344H87.4776C87.4903 13.3645 87.4672 13.1938 87.41 13.0333C87.3527 12.8728 87.2626 12.726 87.1452 12.6024C87.0279 12.4789 86.886 12.3812 86.7287 12.3157C86.5714 12.2502 86.4022 12.2183 86.2318 12.2221C86.0588 12.2197 85.8872 12.2521 85.7269 12.3172C85.5667 12.3823 85.4211 12.4789 85.2988 12.6012C85.1765 12.7236 85.08 12.8692 85.0149 13.0295C84.9499 13.1897 84.9176 13.3614 84.9201 13.5344H84.92Z" fill="#282739"/>
<path d="M92.6758 11.4688H94.9598C95.9508 11.4688 96.532 11.9708 96.532 12.7569C96.5335 13.0063 96.4493 13.2487 96.2936 13.4435C96.1378 13.6383 95.9198 13.7736 95.6761 13.8269V13.906C95.972 13.9247 96.2494 14.0563 96.451 14.2737C96.6525 14.491 96.763 14.7775 96.7594 15.0739C96.7594 15.9577 96.0947 16.5345 94.9829 16.5345H92.6758V11.4688ZM93.6668 12.2361V13.5479H94.6577C95.262 13.5479 95.5509 13.3155 95.5509 12.8871C95.5509 12.4921 95.2993 12.2361 94.7687 12.2361L93.6668 12.2361ZM93.6668 14.2829V15.7672H94.8522C95.4433 15.7672 95.7597 15.5062 95.7597 15.0272C95.7597 14.5202 95.4015 14.2829 94.7269 14.2829L93.6668 14.2829Z" fill="#282739"/>
</g>
<defs>
<clipPath id="clip0_334_29179">
<rect width="134.622" height="45" fill="white"/>
</clipPath>
</defs>
</svg>
