<svg width="40" height="40" viewBox="0 0 40 40" fill="none" xmlns="http://www.w3.org/2000/svg">
<rect width="40" height="40" rx="5" fill="#6F73EE" fill-opacity="0.1"/>
<g clip-path="url(#clip0_49_34)">
<path d="M27.6445 15.9575C27.6445 15.9406 27.6445 15.9406 27.6445 15.9237C27.6276 15.8899 27.6276 15.8561 27.6106 15.8222V15.8053C27.5937 15.7715 27.5599 15.7377 27.543 15.7208L27.5261 15.7039C27.5092 15.6869 27.4753 15.67 27.4584 15.6531L27.4415 15.6362H27.4246L27.4077 15.6193L20.2198 12.0507C20.0845 11.9831 19.9154 11.9831 19.7632 12.0507L17.3447 13.2515L24.5664 16.9554L24.5833 16.9723C24.6002 16.9723 24.6002 16.9892 24.6171 16.9892C24.634 17.0061 24.634 17.023 24.6509 17.04C24.6509 17.0569 24.6509 17.0569 24.6509 17.0738V17.0907V21.0144C24.6509 21.0821 24.6171 21.1328 24.5664 21.1666L23.1119 21.9277C23.0273 21.9784 22.9259 21.9446 22.8751 21.86C22.8582 21.8431 22.8582 21.8093 22.8582 21.7755V17.9363L15.552 14.1648L15.5351 14.1479L12.6092 15.6024L12.5923 15.6193H12.5754L12.5584 15.6362C12.5415 15.6531 12.5077 15.67 12.4908 15.6869L12.4739 15.7039C12.4401 15.7377 12.4231 15.7715 12.3893 15.8053V15.8222C12.3724 15.8561 12.3555 15.8899 12.3555 15.9237C12.3555 15.9406 12.3555 15.9406 12.3555 15.9575C12.3555 15.9914 12.3386 16.0083 12.3386 16.0421V16.059V23.9403C12.3386 24.1263 12.4401 24.3124 12.6261 24.3969L19.7463 27.9486C19.8478 27.9993 19.9662 28.0162 20.0845 27.9824L20.1184 27.9655C20.1522 27.9655 20.1691 27.9486 20.2029 27.9317L27.3739 24.38C27.543 24.2955 27.6614 24.1263 27.6614 23.9234V16.059V16.0421C27.6445 16.0083 27.6445 15.9914 27.6445 15.9575Z" fill="#6F73EE"/>
</g>
<defs>
<clipPath id="clip0_49_34">
<rect width="16" height="16" fill="white" transform="translate(12 12)"/>
</clipPath>
</defs>
</svg>
