<svg width="40" height="40" viewBox="0 0 40 40" fill="none" xmlns="http://www.w3.org/2000/svg">
<rect width="40" height="40" rx="5" fill="#6F73EE" fill-opacity="0.1"/>
<g clip-path="url(#clip0_49_35)">
<path d="M25 22.6667C23.346 22.6667 22 21.3207 22 19.6667C22 18.0127 23.346 16.6667 25 16.6667H26.6667V15.8333C26.6667 14.822 25.8447 14 24.8333 14H13.8333C12.822 14 12 14.822 12 15.8333V24.1667C12 25.178 12.822 26 13.8333 26H24.8333C25.8447 26 26.6667 25.178 26.6667 24.1667V22.6667H25Z" fill="#6F73EE"/>
<path d="M27.5 17.6667H25C23.8973 17.6667 23 18.5641 23 19.6667C23 20.7694 23.8973 21.6667 25 21.6667H27.5C27.776 21.6667 28 21.4427 28 21.1667V18.1667C28 17.8907 27.776 17.6667 27.5 17.6667ZM25 20.3334C24.632 20.3334 24.3333 20.0347 24.3333 19.6667C24.3333 19.2987 24.632 19.0001 25 19.0001C25.368 19.0001 25.6667 19.2987 25.6667 19.6667C25.6667 20.0347 25.368 20.3334 25 20.3334Z" fill="#6F73EE"/>
</g>
<defs>
<clipPath id="clip0_49_35">
<rect width="16" height="16" fill="white" transform="translate(12 12)"/>
</clipPath>
</defs>
</svg>
