<svg width="22" height="22" viewBox="0 0 22 22" fill="none" xmlns="http://www.w3.org/2000/svg">
<path d="M16.7428 4.22441C14.719 2.20059 11.4233 2.20059 9.40158 4.22441L3.79416 9.82754C3.75764 9.86406 3.7383 9.91348 3.7383 9.96504C3.7383 10.0166 3.75764 10.066 3.79416 10.1025L4.58693 10.8953C4.62317 10.9314 4.67222 10.9516 4.72336 10.9516C4.7745 10.9516 4.82355 10.9314 4.85979 10.8953L10.4672 5.29219C11.1633 4.59609 12.0893 4.21367 13.0733 4.21367C14.0572 4.21367 14.9832 4.59609 15.6772 5.29219C16.3733 5.98828 16.7557 6.91426 16.7557 7.89609C16.7557 8.88008 16.3733 9.80391 15.6772 10.5L9.96232 16.2127L9.03635 17.1387C8.17053 18.0045 6.7633 18.0045 5.89748 17.1387C5.47854 16.7197 5.24865 16.1633 5.24865 15.5703C5.24865 14.9773 5.47854 14.4209 5.89748 14.002L11.5672 8.33437C11.7112 8.19258 11.9002 8.11309 12.1022 8.11309H12.1043C12.3063 8.11309 12.4932 8.19258 12.635 8.33437C12.7789 8.47832 12.8563 8.66738 12.8563 8.86934C12.8563 9.06914 12.7768 9.2582 12.635 9.4L8.0008 14.0299C7.96428 14.0664 7.94494 14.1158 7.94494 14.1674C7.94494 14.2189 7.96428 14.2684 8.0008 14.3049L8.79357 15.0977C8.82981 15.1337 8.87887 15.154 8.93 15.154C8.98114 15.154 9.03019 15.1337 9.06643 15.0977L13.6985 10.4656C14.126 10.0381 14.3602 9.4709 14.3602 8.86719C14.3602 8.26348 14.1238 7.69414 13.6985 7.26875C12.8154 6.38574 11.3803 6.38789 10.4973 7.26875L9.94729 7.8209L4.82971 12.9363C4.48237 13.2816 4.20704 13.6924 4.01969 14.145C3.83234 14.5975 3.7367 15.0827 3.7383 15.5725C3.7383 16.5672 4.12717 17.5018 4.82971 18.2043C5.55803 18.9305 6.51193 19.2936 7.46584 19.2936C8.41975 19.2936 9.37365 18.9305 10.0998 18.2043L16.7428 11.5656C17.7203 10.5859 18.2617 9.28184 18.2617 7.89609C18.2639 6.5082 17.7225 5.2041 16.7428 4.22441Z" fill="#282739"/>
</svg>
