<svg width="35" height="24" viewBox="0 0 35 24" fill="none" xmlns="http://www.w3.org/2000/svg">
<rect x="0.243409" y="0.243409" width="33.5905" height="22.8805" rx="2.6775" fill="white" stroke="#EAEBED" stroke-width="0.486818"/>
<path fill-rule="evenodd" clip-rule="evenodd" d="M17.2302 16.9229C16.0701 17.9238 14.5654 18.5279 12.9212 18.5279C9.25191 18.5279 6.27734 15.5188 6.27734 11.8069C6.27734 8.09503 9.25191 5.08594 12.9212 5.08594C14.5655 5.08594 16.0703 5.69021 17.2304 6.69121C18.3905 5.69034 19.8952 5.08616 21.5394 5.08616C25.2087 5.08616 28.1832 8.09525 28.1832 11.8072C28.1832 15.5191 25.2087 18.5282 21.5394 18.5282C19.8951 18.5282 18.3903 17.9239 17.2302 16.9229Z" fill="#ED0006"/>
<path fill-rule="evenodd" clip-rule="evenodd" d="M17.2305 16.9232C18.6592 15.6905 19.5652 13.856 19.5652 11.8074C19.5652 9.75886 18.6592 7.92436 17.2305 6.69161C18.3906 5.69066 19.8953 5.08643 21.5396 5.08643C25.2089 5.08643 28.1834 8.09552 28.1834 11.8074C28.1834 15.5193 25.2089 18.5284 21.5396 18.5284C19.8953 18.5284 18.3906 17.9242 17.2305 16.9232Z" fill="#F9A000"/>
<path fill-rule="evenodd" clip-rule="evenodd" d="M17.2293 16.923C18.6581 15.6903 19.5641 13.8558 19.5641 11.8072C19.5641 9.75866 18.6581 7.92416 17.2293 6.69141C15.8005 7.92416 14.8945 9.75866 14.8945 11.8072C14.8945 13.8558 15.8005 15.6903 17.2293 16.923Z" fill="#FF5E00"/>
</svg>
