<svg width="35" height="24" viewBox="0 0 35 24" fill="none" xmlns="http://www.w3.org/2000/svg">
<rect x="0.243409" y="0.243409" width="33.5905" height="22.8805" rx="2.6775" fill="white" stroke="#EAEBED" stroke-width="0.486818"/>
<path fill-rule="evenodd" clip-rule="evenodd" d="M10.3427 15.8295H8.27826L6.73019 9.92355C6.65672 9.65187 6.5007 9.4117 6.27121 9.2985C5.69849 9.01403 5.06738 8.78764 4.37891 8.67345V8.44608H7.70453C8.16351 8.44608 8.50775 8.78764 8.56512 9.18432L9.36835 13.4445L11.4318 8.44608H13.4388L10.3427 15.8295ZM14.5855 15.8295H12.6358L14.2412 8.44608H16.1909L14.5855 15.8295ZM18.7143 10.4916C18.7717 10.0939 19.1159 9.86655 19.5175 9.86655C20.1486 9.80946 20.8361 9.92364 21.4098 10.2071L21.7541 8.61744C21.1803 8.39006 20.5492 8.27588 19.9765 8.27588C18.0842 8.27588 16.7072 9.29859 16.7072 10.718C16.7072 11.7978 17.6826 12.3648 18.3711 12.7063C19.1159 13.0469 19.4028 13.2743 19.3454 13.6149C19.3454 14.1257 18.7717 14.3531 18.1989 14.3531C17.5105 14.3531 16.822 14.1828 16.1919 13.8983L15.8477 15.489C16.5361 15.7725 17.281 15.8867 17.9695 15.8867C20.0912 15.9428 21.4098 14.9211 21.4098 13.3875C21.4098 11.4562 18.7143 11.343 18.7143 10.4916ZM28.2336 15.8295L26.6856 8.44608H25.0227C24.6785 8.44608 24.3343 8.67345 24.2195 9.01403L21.3529 15.8295H23.3599L23.7605 14.7507H26.2266L26.4561 15.8295H28.2336ZM25.3084 10.4345L25.8811 13.2172H24.2757L25.3084 10.4345Z" fill="#172B85"/>
</svg>
