<svg width="35" height="24" viewBox="0 0 35 24" fill="none" xmlns="http://www.w3.org/2000/svg">
<rect x="0.243409" y="0.243409" width="33.5905" height="22.8805" rx="2.6775" fill="white" stroke="#EAEBED" stroke-width="0.486818"/>
<path fill-rule="evenodd" clip-rule="evenodd" d="M9.32651 8.12318C9.04048 8.4658 8.58283 8.73603 8.12518 8.69743C8.06797 8.23417 8.29203 7.74195 8.55422 7.43794C8.84026 7.08567 9.34081 6.83473 9.74602 6.81543C9.79369 7.29799 9.60777 7.77091 9.32651 8.12318ZM9.74121 8.78911C9.33803 8.76562 8.97015 8.91185 8.673 9.02996C8.48177 9.10597 8.31984 9.17034 8.19665 9.17034C8.0584 9.17034 7.88978 9.10253 7.70046 9.0264C7.4524 8.92664 7.16879 8.81259 6.87137 8.81806C6.18967 8.82772 5.55563 9.21859 5.20763 9.8411C4.49255 11.0861 5.02171 12.9295 5.71295 13.9429C6.05142 14.4448 6.45663 14.9949 6.99055 14.9756C7.22545 14.9666 7.39442 14.894 7.56928 14.8189C7.7706 14.7324 7.97974 14.6426 8.30629 14.6426C8.62153 14.6426 8.82152 14.7301 9.0135 14.8141C9.19604 14.8939 9.37133 14.9706 9.63157 14.9659C10.1846 14.9563 10.5326 14.4641 10.871 13.9622C11.2363 13.4236 11.3968 12.8979 11.4212 12.8181L11.424 12.8089C11.4234 12.8083 11.4189 12.8062 11.411 12.8025C11.2889 12.7459 10.3556 12.3134 10.3466 11.1537C10.3377 10.1802 11.0869 9.68703 11.2048 9.60939C11.212 9.60466 11.2169 9.60148 11.219 9.59982C10.7423 8.88562 9.99864 8.80841 9.74121 8.78911ZM13.5693 14.9128V7.38968H16.3581C17.7978 7.38968 18.8037 8.39341 18.8037 9.8604C18.8037 11.3274 17.7787 12.3408 16.32 12.3408H14.723V14.9128H13.5693ZM14.7229 8.37411H16.0529C17.054 8.37411 17.6261 8.91458 17.6261 9.86523C17.6261 10.8159 17.054 11.3612 16.0481 11.3612H14.7229V8.37411ZM22.6127 14.0104C22.3076 14.5992 21.6354 14.9707 20.9108 14.9707C19.8382 14.9707 19.0897 14.3241 19.0897 13.3493C19.0897 12.3842 19.8143 11.8293 21.1539 11.7472L22.5936 11.6604V11.2454C22.5936 10.6325 22.1979 10.2995 21.4924 10.2995C20.9108 10.2995 20.4865 10.6036 20.4007 11.0668H19.3615C19.3948 10.092 20.3006 9.38267 21.5258 9.38267C22.8463 9.38267 23.7044 10.0824 23.7044 11.1681V14.9128H22.6365V14.0104H22.6127ZM21.2206 14.078C20.6056 14.078 20.2147 13.7788 20.2147 13.3204C20.2147 12.8475 20.5913 12.5724 21.3112 12.529L22.5935 12.4469V12.8716C22.5935 13.5761 22.0024 14.078 21.2206 14.078ZM27.2463 15.2072C26.7839 16.5246 26.2548 16.9589 25.1297 16.9589C25.0439 16.9589 24.7579 16.9493 24.6911 16.93V16.0276C24.7626 16.0372 24.939 16.0469 25.0296 16.0469C25.5397 16.0469 25.8257 15.8297 26.0021 15.2651L26.107 14.9321L24.1524 9.45506H25.3585L26.7172 13.8995H26.741L28.0997 9.45506H29.2724L27.2463 15.2072Z" fill="#282739"/>
</svg>
