<svg width="35" height="24" viewBox="0 0 35 24" fill="none" xmlns="http://www.w3.org/2000/svg">
<rect x="0.243409" y="0.243409" width="33.5905" height="22.8805" rx="2.6775" fill="white" stroke="#EAEBED" stroke-width="0.486818"/>
<path fill-rule="evenodd" clip-rule="evenodd" d="M16.0985 15.3426V12.4013H17.6166C18.2387 12.4013 18.7637 12.1929 19.1917 11.7818L19.2945 11.6775C20.0763 10.8264 20.025 9.50051 19.1917 8.71308C18.7751 8.2962 18.2044 8.07039 17.6166 8.08197H15.1797V15.3426H16.0985ZM16.0974 11.5096V8.97357H17.6386C17.9696 8.97357 18.2836 9.10095 18.5176 9.33255C19.0142 9.81891 19.0256 10.6295 18.5461 11.1332C18.3121 11.3822 17.9811 11.5212 17.6386 11.5096H16.0974ZM23.5803 10.7628C23.1865 10.398 22.6501 10.2127 21.9709 10.2127C21.0978 10.2127 20.4415 10.537 20.0077 11.1797L20.8181 11.695C21.1149 11.2549 21.5201 11.0349 22.0337 11.0349C22.359 11.0349 22.6729 11.1565 22.9183 11.3765C23.158 11.5849 23.295 11.886 23.295 12.2045V12.4187C22.9411 12.2218 22.496 12.1176 21.9481 12.1176C21.3089 12.1176 20.7953 12.2682 20.4129 12.575C20.0305 12.8819 19.8365 13.2872 19.8365 13.8025C19.8251 14.2715 20.0248 14.7173 20.3787 15.0184C20.7382 15.3426 21.1948 15.5048 21.7312 15.5048C22.3647 15.5048 22.8669 15.2211 23.2493 14.6536H23.2893V15.3426H24.1681V12.2797C24.1681 11.6371 23.9741 11.1275 23.5803 10.7628ZM21.0857 14.4276C20.8973 14.2886 20.7832 14.0628 20.7832 13.8196C20.7832 13.5475 20.9087 13.3217 21.1542 13.1422C21.4053 12.9627 21.7193 12.8701 22.0903 12.8701C22.604 12.8643 23.0036 12.9801 23.2889 13.2117C23.2889 13.6054 23.1348 13.947 22.8323 14.2365C22.5583 14.5144 22.1873 14.6707 21.7992 14.6707C21.5423 14.6765 21.2912 14.5897 21.0857 14.4276ZM26.1425 17.5255L29.2129 10.3748H28.2142L26.7931 13.9415H26.776L25.3207 10.3748H24.322L26.3366 15.0242L25.1952 17.5255H26.1425Z" fill="#282739"/>
<path d="M12.9279 11.7648C12.9279 11.4811 12.9051 11.1974 12.8594 10.9194H8.98438V12.5233H11.2044C11.1131 13.0386 10.8163 13.5018 10.3826 13.7913V14.8335H11.7066C12.4828 14.1097 12.9279 13.0386 12.9279 11.7648Z" fill="#4285F4"/>
<path d="M8.98212 15.841C10.0893 15.841 11.0252 15.4704 11.7044 14.8335L10.3803 13.7913C10.0094 14.0461 9.5357 14.1908 8.98212 14.1908C7.9092 14.1908 7.00178 13.4555 6.67648 12.4712H5.3125V13.5481C6.00876 14.9551 7.42981 15.841 8.98212 15.841Z" fill="#34A853"/>
<path d="M6.67623 12.4709C6.50499 11.9556 6.50499 11.394 6.67623 10.8729V9.80176H5.31203C4.72411 10.9771 4.72411 12.3667 5.31203 13.5421L6.67623 12.4709Z" fill="#FBBC04"/>
<path d="M8.98212 9.15333C9.56994 9.14175 10.1349 9.36756 10.5573 9.77865L11.7329 8.58591C10.9853 7.87953 10.0037 7.4916 8.98212 7.50318C7.42981 7.50318 6.00876 8.39484 5.3125 9.80181L6.67648 10.8787C7.00178 9.88865 7.9092 9.15333 8.98212 9.15333Z" fill="#EA4335"/>
</svg>
