<svg width="35" height="24" viewBox="0 0 35 24" fill="none" xmlns="http://www.w3.org/2000/svg">
<rect x="0.243409" y="0.243409" width="33.5905" height="22.8805" rx="2.6775" fill="white" stroke="#EAEBED" stroke-width="0.486818"/>
<path d="M19.5651 11.8069C19.5651 15.5188 16.5905 18.5279 12.9212 18.5279C9.25191 18.5279 6.27734 15.5188 6.27734 11.8069C6.27734 8.09503 9.25191 5.08594 12.9212 5.08594C16.5905 5.08594 19.5651 8.09503 19.5651 11.8069Z" fill="#ED0006"/>
<path d="M28.1823 11.8069C28.1823 15.5188 25.2077 18.5279 21.5384 18.5279C17.8691 18.5279 14.8945 15.5188 14.8945 11.8069C14.8945 8.09503 17.8691 5.08594 21.5384 5.08594C25.2077 5.08594 28.1823 8.09503 28.1823 11.8069Z" fill="#0099DF"/>
<path fill-rule="evenodd" clip-rule="evenodd" d="M17.2293 16.923C18.6581 15.6903 19.5641 13.8558 19.5641 11.8072C19.5641 9.75866 18.6581 7.92416 17.2293 6.69141C15.8005 7.92416 14.8945 9.75866 14.8945 11.8072C14.8945 13.8558 15.8005 15.6903 17.2293 16.923Z" fill="#6C6BBD"/>
</svg>
