<svg width="152" height="45" viewBox="0 0 152 45" fill="none" xmlns="http://www.w3.org/2000/svg">
<g clip-path="url(#clip0_334_29178)">
<path d="M145.745 44.8882H5.81967C2.74131 44.8882 0.222656 42.3695 0.222656 39.2912V5.70908C0.222656 2.63072 2.74131 0.112066 5.81967 0.112066H145.745C148.823 0.112066 151.342 2.63072 151.342 5.70908V39.2912C151.342 42.3695 148.823 44.8882 145.745 44.8882Z" fill="white"/>
<path d="M119.926 33.6939H122.015V19.7H119.926V33.6939ZM138.74 24.7409L136.346 30.808H136.274L133.789 24.7409H131.539L135.265 33.2208L133.141 37.9376H135.32L141.063 24.7409H138.74ZM126.895 32.1045C126.209 32.1045 125.256 31.7625 125.256 30.916C125.256 29.8359 126.445 29.4218 127.47 29.4218C128.389 29.4218 128.82 29.6199 129.378 29.8902C129.216 31.1862 128.1 32.1045 126.895 32.1045V32.1045ZM127.146 24.4348C125.634 24.4348 124.068 25.1012 123.42 26.5774L125.274 27.3514C125.67 26.5774 126.408 26.3251 127.182 26.3251C128.262 26.3251 129.361 26.9736 129.378 28.1258V28.2696C129 28.0536 128.191 27.7296 127.2 27.7296C125.202 27.7296 123.167 28.8275 123.167 30.8801C123.167 32.7525 124.806 33.9589 126.642 33.9589C128.046 33.9589 128.82 33.3288 129.307 32.5908H129.378V33.6708H131.395V28.3055C131.395 25.8214 129.541 24.4348 127.146 24.4348V24.4348ZM114.237 26.4444H111.267V21.6477H114.237C115.799 21.6477 116.686 22.9406 116.686 24.046C116.686 25.1305 115.799 26.4444 114.237 26.4444ZM114.184 19.7H109.179V33.6939H111.267V28.3921H114.184C116.499 28.3921 118.774 26.716 118.774 24.046C118.774 21.3761 116.499 19.7 114.184 19.7ZM86.8915 32.1071C85.4485 32.1071 84.2403 30.8989 84.2403 29.2395C84.2403 27.5626 85.4485 26.3361 86.8915 26.3361C88.3162 26.3361 89.4343 27.5626 89.4343 29.2395C89.4343 30.8989 88.3162 32.1071 86.8915 32.1071V32.1071ZM89.29 25.5245H89.2178C88.7491 24.9656 87.8469 24.4606 86.711 24.4606C84.3304 24.4606 82.1485 26.5525 82.1485 29.2395C82.1485 31.9086 84.3304 33.9825 86.711 33.9825C87.8469 33.9825 88.7491 33.4774 89.2178 32.9007H89.29V33.5859C89.29 35.4076 88.3162 36.3814 86.7472 36.3814C85.4669 36.3814 84.6733 35.4614 84.3484 34.6861L82.5272 35.4434C83.0502 36.7058 84.4389 38.2568 86.7472 38.2568C89.1998 38.2568 91.2738 36.8138 91.2738 33.2973V24.7492H89.29V25.5245ZM92.7163 33.6939H94.8083V19.6996H92.7163V33.6939ZM97.8922 29.0773C97.8381 27.2377 99.3169 26.3002 100.381 26.3002C101.211 26.3002 101.914 26.7147 102.148 27.3103L97.8922 29.0773ZM104.384 27.4904C103.988 26.4261 102.779 24.4606 100.309 24.4606C97.856 24.4606 95.8183 26.3903 95.8183 29.2216C95.8183 31.8907 97.8381 33.9825 100.543 33.9825C102.725 33.9825 103.988 32.648 104.511 31.8727L102.888 30.7904C102.347 31.5841 101.607 32.1071 100.543 32.1071C99.4791 32.1071 98.7218 31.62 98.2347 30.6645L104.6 28.0313L104.384 27.4904ZM53.6663 25.9215V27.9412H58.4993C58.355 29.0773 57.9763 29.9068 57.3992 30.4839C56.6961 31.1875 55.5959 31.9628 53.6663 31.9628C50.6906 31.9628 48.3644 29.5643 48.3644 26.5887C48.3644 23.6131 50.6906 21.2144 53.6663 21.2144C55.2714 21.2144 56.4433 21.8457 57.3091 22.6573L58.7337 21.2327C57.5256 20.0783 55.9203 19.1946 53.6663 19.1946C49.5904 19.1946 46.1641 22.513 46.1641 26.5887C46.1641 30.6645 49.5904 33.9825 53.6663 33.9825C55.8666 33.9825 57.5256 33.2615 58.8238 31.9086C60.1584 30.574 60.5734 28.6986 60.5734 27.1839C60.5734 26.7147 60.5374 26.2822 60.4649 25.9215H53.6663ZM66.0681 32.1071C64.625 32.1071 63.3806 30.9168 63.3806 29.2216C63.3806 27.5083 64.625 26.3361 66.0681 26.3361C67.5105 26.3361 68.755 27.5083 68.755 29.2216C68.755 30.9168 67.5105 32.1071 66.0681 32.1071V32.1071ZM66.0681 24.4606C63.4348 24.4606 61.2887 26.4624 61.2887 29.2216C61.2887 31.9628 63.4348 33.9825 66.0681 33.9825C68.7008 33.9825 70.8469 31.9628 70.8469 29.2216C70.8469 26.4624 68.7008 24.4606 66.0681 24.4606ZM76.4933 32.1071C75.0508 32.1071 73.8063 30.9168 73.8063 29.2216C73.8063 27.5083 75.0508 26.3361 76.4933 26.3361C77.9359 26.3361 79.1803 27.5083 79.1803 29.2216C79.1803 30.9168 77.9359 32.1071 76.4933 32.1071ZM76.4933 24.4606C73.8601 24.4606 71.7144 26.4624 71.7144 29.2216C71.7144 31.9628 73.8601 33.9825 76.4933 33.9825C79.1261 33.9825 81.2722 31.9628 81.2722 29.2216C81.2722 26.4624 79.1261 24.4606 76.4933 24.4606Z" fill="#282739"/>
<path d="M11.988 36.3691L11.9048 36.2896C11.579 35.9449 11.3867 35.4097 11.3867 34.7167V34.8798V10.1231C11.3867 10.1208 11.3867 10.1191 11.3867 10.1174C11.3867 10.1195 11.3867 10.1213 11.3867 10.1235V10.2871C11.3867 9.5366 11.6109 8.97131 11.9866 8.63235L25.8558 22.5012L11.988 36.3691ZM11.3867 10.116C11.3867 10.0543 11.3884 9.99444 11.3915 9.93545C11.3884 9.99399 11.3867 10.0543 11.3867 10.116ZM11.3915 9.93276C11.3915 9.93198 11.3915 9.93108 11.3919 9.93019C11.3915 9.93108 11.3915 9.93198 11.3915 9.93276ZM11.3919 9.92493C11.3919 9.92448 11.3919 9.92403 11.3919 9.92358C11.3919 9.92403 11.3919 9.92448 11.3919 9.92493Z" fill="url(#paint0_linear_334_29178)"/>
<path d="M30.4778 27.2896L30.5833 27.2297L36.0604 24.1176C36.5826 23.8207 36.9306 23.4609 37.1042 23.08C36.9311 23.4609 36.5829 23.8212 36.0604 24.1181L30.5833 27.2301L30.4778 27.2896V27.2896ZM30.4792 27.1256L25.8555 22.5011L30.4787 17.8774L36.0604 21.0484C36.7692 21.4512 37.1671 21.9703 37.2336 22.5006C37.2336 22.5011 37.2336 22.502 37.2336 22.5028C37.1671 23.0319 36.7692 23.5514 36.0604 23.9541L30.4792 27.1256" fill="url(#paint1_linear_334_29178)"/>
<path d="M12.9749 36.897C12.5875 36.897 12.2494 36.771 11.9858 36.5332L11.9863 36.5327C12.2499 36.7706 12.5884 36.897 12.9758 36.897C13.0094 36.897 13.0436 36.8961 13.0781 36.8944C13.0431 36.8961 13.0085 36.897 12.9749 36.897V36.897ZM12.9754 36.733C12.588 36.7334 12.2499 36.607 11.9863 36.3692V36.3688L25.8541 22.5009L30.4778 27.1254L14.2294 36.3574C13.7799 36.6123 13.354 36.733 12.9754 36.733V36.733ZM11.9824 36.5301C11.9578 36.5079 11.9338 36.4842 11.9102 36.4597L11.9824 36.5301Z" fill="url(#paint2_linear_334_29178)"/>
<path d="M25.8536 22.501L11.9844 8.63214C12.248 8.39471 12.5856 8.26878 12.9726 8.26878C13.3522 8.26878 13.7784 8.3899 14.2289 8.64523L30.4768 17.8773L25.8536 22.501V22.501ZM30.5813 17.7728L14.2289 8.4818C13.7784 8.22635 13.3522 8.10523 12.9726 8.10523C12.9708 8.10523 12.9696 8.10523 12.9678 8.10523C12.97 8.10523 12.9717 8.10523 12.9744 8.10523C13.3531 8.10523 13.7789 8.2259 14.2289 8.48135L30.5813 17.7728V17.7728Z" fill="url(#paint3_linear_334_29178)"/>
<path d="M13.0774 36.8945C13.4293 36.8744 13.819 36.7533 14.2287 36.5211L30.4757 27.2895L14.2287 36.5211C13.8193 36.7537 13.4293 36.8744 13.0774 36.8945V36.8945ZM11.9851 36.5333L11.9816 36.5303C11.9828 36.5312 11.9842 36.5324 11.9851 36.5333ZM11.9094 36.4599L11.9023 36.4529V36.4525C11.905 36.4551 11.9072 36.4576 11.9094 36.4599Z" fill="white"/>
<path d="M30.4766 27.2896L30.582 27.2297L30.4766 27.2896Z" fill="url(#paint4_linear_334_29178)"/>
<path d="M12.9751 36.897C12.5876 36.897 12.2491 36.7706 11.9855 36.5327L11.9851 36.5332C11.9842 36.5323 11.9828 36.531 11.9816 36.5301L11.9094 36.4597C11.9072 36.4575 11.905 36.4549 11.9023 36.4523L11.9855 36.3692C12.2491 36.607 12.5872 36.7334 12.9746 36.733C13.3532 36.733 13.7791 36.6123 14.2287 36.3574L30.477 27.1254L30.5812 27.2295L30.4757 27.2894L14.2287 36.521C13.819 36.7531 13.4293 36.8742 13.0774 36.8944C13.0428 36.8961 13.0087 36.897 12.9751 36.897" fill="url(#paint5_linear_334_29178)"/>
<path d="M11.9048 36.4531C11.579 36.1085 11.3867 35.5733 11.3867 34.8803V34.8798C11.3867 35.5733 11.579 36.108 11.9048 36.4527V36.4531" fill="white"/>
<path d="M11.9048 36.4526C11.579 36.108 11.3867 35.5732 11.3867 34.8798V34.7167C11.3867 35.4097 11.579 35.9449 11.9048 36.2895L11.988 36.3691L11.9048 36.4526" fill="url(#paint6_linear_334_29178)"/>
<path d="M11.9023 36.4526L11.9855 36.3691V36.3695L11.9023 36.4526" fill="url(#paint7_linear_334_29178)"/>
<path d="M37.1055 23.0801C37.1916 22.8911 37.2349 22.697 37.2349 22.5028C37.2349 22.5025 37.2349 22.502 37.2349 22.502C37.2349 22.6966 37.1916 22.8907 37.1055 23.0801Z" fill="white"/>
<path d="M30.5846 27.2295L30.4805 27.1254L36.0617 23.9539C36.7705 23.5512 37.1685 23.0317 37.235 22.5026C37.235 22.6968 37.1916 22.8909 37.1055 23.0799C36.9319 23.4607 36.5839 23.8206 36.0617 24.1174L30.5846 27.2295Z" fill="url(#paint8_linear_334_29178)"/>
<path d="M37.2329 22.501V22.5005C37.2324 21.915 36.8411 21.3295 36.0596 20.8852L30.5825 17.7732H30.582L30.5825 17.7728L36.0596 20.8848C36.842 21.3291 37.2337 21.9154 37.2329 22.501Z" fill="#282739"/>
<path d="M37.2315 22.5005C37.165 21.9701 36.767 21.451 36.0582 21.0483L30.4766 17.8772L30.5807 17.7731H30.5811L36.0582 20.8852C36.8397 21.3295 37.231 21.9149 37.2315 22.5005Z" fill="url(#paint9_linear_334_29178)"/>
<path d="M11.3867 10.1172C11.3867 10.1167 11.3867 10.1163 11.3867 10.1158C11.3867 10.1163 11.3867 10.1167 11.3867 10.1172ZM11.3915 9.93528C11.3915 9.93439 11.3915 9.9335 11.3915 9.9326C11.3915 9.9335 11.3915 9.93439 11.3915 9.93528ZM11.3919 9.93002C11.3919 9.92823 11.3919 9.92655 11.3919 9.92476C11.3919 9.92655 11.3919 9.92823 11.3919 9.93002ZM11.3919 9.92342C11.4567 8.77346 12.082 8.10921 12.9665 8.10529C12.583 8.10753 12.249 8.23346 11.9875 8.46909V8.46865L11.9844 8.47178C11.9568 8.49663 11.9306 8.52294 11.9048 8.55002C11.6109 8.86088 11.4256 9.32656 11.3919 9.92342Z" fill="#282739"/>
<path d="M11.3867 10.2866V10.1231C11.3867 10.1208 11.3867 10.119 11.3867 10.1169C11.3867 10.1165 11.3867 10.116 11.3867 10.1156C11.3867 10.0539 11.3884 9.99356 11.3915 9.93502C11.3915 9.93412 11.3915 9.93323 11.3915 9.93233C11.3915 9.93155 11.3915 9.93065 11.3919 9.92976C11.3919 9.92797 11.3919 9.92629 11.3919 9.9245C11.3919 9.92405 11.3919 9.9236 11.3919 9.92315C11.4256 9.32629 11.6109 8.86061 11.9048 8.54975L11.9866 8.63192C11.6109 8.97087 11.3867 9.53617 11.3867 10.2866V10.2866ZM11.9844 8.47151L11.9875 8.46837C11.9866 8.46972 11.9853 8.47061 11.9844 8.47151Z" fill="url(#paint10_linear_334_29178)"/>
<path d="M30.4766 17.8774L14.2287 8.64539C13.7782 8.39005 13.352 8.26893 12.9724 8.26893C12.5854 8.26893 12.2478 8.39487 11.9842 8.63229L11.9023 8.55013C11.9282 8.52304 11.9544 8.49673 11.9819 8.47188C11.9828 8.47098 11.9842 8.47009 11.9851 8.46919C12.2466 8.23356 12.5806 8.10763 12.9641 8.10539C12.965 8.10539 12.9662 8.10539 12.9676 8.10539C12.9694 8.10539 12.9706 8.10539 12.9724 8.10539C13.352 8.10539 13.7782 8.22651 14.2287 8.48195L30.5812 17.773L30.5807 17.7733L30.4766 17.8774Z" fill="url(#paint11_linear_334_29178)"/>
<path d="M48.9121 11.269C48.9252 12.3316 48.7123 13.1886 48.2749 13.8393H51.6703V8.77309H48.9121V11.269ZM47.3642 16.0898H46.5391V13.8393H47.1958C47.7773 13.3381 48.0616 12.482 48.0498 11.269V7.94798H52.5339V13.8393H53.2839V16.0898H52.4584V14.6644H47.3642V16.0898" fill="#282739"/>
<path d="M48.9147 11.2689L48.8027 11.2702L48.8036 11.3607C48.8032 12.366 48.5933 13.1689 48.1844 13.7766L48.0673 13.9511H51.7848V8.66102H48.8027V11.2698V11.2702L48.9147 11.2689H49.0266V8.8849H51.5609V13.7272H48.2775V13.8392L48.3703 13.9013C48.8105 13.2462 49.0275 12.3961 49.0275 11.3607L49.0266 11.2676L48.9147 11.2689H49.0266H48.9147ZM47.3667 16.0897V15.9778H46.6536V13.9511H47.1984H47.2399L47.2714 13.924C47.8765 13.4019 48.1648 12.5321 48.1648 11.3423L48.1643 11.268V11.2689V8.05979H52.4245V13.9511H53.1745V15.9778H52.5729V14.6643V14.5523H47.2548V16.0897H47.3667V15.9778V16.0897H47.4787V14.7762H52.349V16.0897V16.2017H53.2865H53.3984V13.7272H52.6484V7.83591H47.9404V11.2693V11.2698L47.9409 11.3423C47.9404 12.5007 47.6597 13.2952 47.1253 13.7539L47.1984 13.8392V13.7272H46.5416H46.4297V16.2017H47.3667H47.4787V16.0897H47.3667" fill="#282739"/>
<path d="M55.7282 13.2337C56.2257 13.737 56.8336 13.9884 57.5529 13.9884C58.2721 13.9884 58.8809 13.737 59.3771 13.2337C59.8748 12.7304 60.1239 12.0871 60.1239 11.3058C60.1239 10.5244 59.8748 9.88109 59.3771 9.37781C58.8809 8.87452 58.2721 8.62311 57.5529 8.62311C56.8336 8.62311 56.2257 8.87452 55.7282 9.37781C55.2318 9.88109 54.9826 10.5244 54.9826 11.3058C54.9826 12.0871 55.2318 12.7304 55.7282 13.2337ZM60.0156 13.796C59.3553 14.475 58.5345 14.814 57.5529 14.814C56.5712 14.814 55.75 14.475 55.091 13.796C54.4308 13.1177 54.1016 12.2875 54.1016 11.3058C54.1016 10.324 54.4308 9.49366 55.091 8.81553C55.75 8.13639 56.5712 7.7971 57.5529 7.7971C58.5288 7.7971 59.3479 8.13818 60.0111 8.8199C60.6736 9.50161 61.005 10.3302 61.005 11.3058C61.005 12.2875 60.6749 13.1177 60.0156 13.796Z" fill="#282739"/>
<path d="M55.7268 13.2341L55.6472 13.3128C56.1627 13.8362 56.8059 14.1021 57.5516 14.1007C58.2966 14.1021 58.9412 13.8362 59.4553 13.3128C59.9744 12.7889 60.2354 12.1111 60.2345 11.3061C60.2354 10.5012 59.9744 9.82336 59.4553 9.29948C58.9412 8.77604 58.2966 8.51019 57.5516 8.51153C56.8059 8.51019 56.1627 8.77604 55.6472 9.29948C55.1295 9.82336 54.8685 10.5012 54.8694 11.3061C54.8685 12.1111 55.1295 12.7889 55.6472 13.3128L55.7268 13.2341L55.8069 13.1554C55.3319 12.6721 55.0945 12.0643 55.0932 11.3061C55.0945 10.5479 55.3319 9.94011 55.8069 9.45687H55.8064C56.2856 8.97373 56.858 8.73675 57.5516 8.73541C58.2446 8.73675 58.8183 8.97373 59.2962 9.45687L59.2979 9.45866L59.2962 9.45687C59.7723 9.94011 60.0094 10.5479 60.0107 11.3061C60.0094 12.0643 59.7723 12.6721 59.2962 13.1554C58.8183 13.6385 58.2446 13.8755 57.5516 13.8768C56.858 13.8755 56.2856 13.6385 55.8064 13.1554L55.7268 13.2341ZM60.0143 13.7963L59.9342 13.7185C59.2927 14.3762 58.5074 14.701 57.5516 14.7024C56.5953 14.701 55.8103 14.3762 55.1697 13.7185C54.5295 13.0587 54.2134 12.2629 54.2122 11.3061C54.2134 10.3494 54.5295 9.55358 55.1697 8.89369C55.8103 8.23604 56.5953 7.91075 57.5516 7.9094C58.5017 7.91075 59.2848 8.23739 59.9298 8.89851C60.5726 9.56142 60.8905 10.356 60.8918 11.3061C60.8905 12.2629 60.5735 13.0587 59.9342 13.7185L60.0143 13.7963L60.0946 13.8741C60.7733 13.1772 61.1165 12.3127 61.1156 11.3061C61.1165 10.3053 60.7724 9.44254 60.0903 8.74246C59.4081 8.0397 58.5538 7.68429 57.5516 7.68552C56.5441 7.68429 55.687 8.03802 55.0093 8.7381V8.73765C54.3293 9.43504 53.9874 10.2996 53.9883 11.3061C53.9874 12.3127 54.3293 13.1772 55.0093 13.8746V13.8741C55.687 14.5742 56.5441 14.9272 57.5516 14.9263C58.5586 14.9272 59.4156 14.5742 60.0946 13.8741L60.0143 13.7963Z" fill="#282739"/>
<path d="M65.3488 14.814C64.3606 14.814 63.532 14.4795 62.8629 13.81C62.1926 13.141 61.8594 12.3062 61.8594 11.3058C61.8594 10.3052 62.1926 9.47049 62.8629 8.80154C63.532 8.13202 64.3606 7.7971 65.3488 7.7971C66.3611 7.7971 67.184 8.16314 67.8158 8.89467L67.2146 9.47665C66.759 8.90732 66.1358 8.62311 65.3488 8.62311C64.6164 8.62311 63.9984 8.87016 63.4956 9.36426C62.9919 9.85837 62.7405 10.5056 62.7405 11.3058C62.7405 12.1059 62.9919 12.7536 63.4956 13.2472C63.9984 13.7414 64.6164 13.9884 65.3488 13.9884C66.1555 13.9884 66.843 13.6634 67.4126 13.0133L68.0126 13.6132C67.7057 13.9822 67.3217 14.2747 66.8582 14.4899C66.396 14.7059 65.8919 14.814 65.3488 14.814" fill="#282739"/>
<path d="M65.3474 14.8143V14.7024C64.3842 14.701 63.5905 14.3797 62.9407 13.7312C62.2914 13.0818 61.9709 12.2817 61.97 11.3061C61.9709 10.3306 62.2914 9.53041 62.9407 8.88105C63.5905 8.23213 64.3842 7.91075 65.3474 7.9094C66.3331 7.9112 67.1167 8.26011 67.7296 8.96802L67.8145 8.89504L67.7367 8.81455L67.1355 9.39698L67.2133 9.47702L67.3007 9.40705C66.8258 8.81153 66.1608 8.50985 65.3474 8.51153C64.5896 8.51064 63.9377 8.7709 63.416 9.28459C62.8891 9.80019 62.6258 10.4831 62.6272 11.3061C62.6258 12.1291 62.8891 12.8129 63.416 13.3276C63.9377 13.8413 64.5896 14.1016 65.3474 14.1007C66.1848 14.1021 66.9102 13.7583 67.4952 13.0875L67.4113 13.0137L67.3321 13.0928L67.9321 13.6927L68.0113 13.6135L67.9251 13.5423C67.6287 13.8982 67.2596 14.1799 66.8096 14.3888C66.3623 14.5978 65.8761 14.7019 65.3474 14.7024V14.8143V14.9263C65.9054 14.9263 66.4267 14.8152 66.9041 14.5918C67.3816 14.3705 67.7796 14.0675 68.0974 13.6853L68.1625 13.6071L67.4905 12.9345L67.4057 12.8497L67.327 12.9398C66.7733 13.5699 66.1236 13.8755 65.3474 13.8768C64.64 13.8755 64.0571 13.642 63.573 13.1676H63.5726C63.0916 12.6953 62.852 12.0835 62.8511 11.3061C62.852 10.5287 63.0916 9.91784 63.5726 9.44467H63.573C64.0571 8.97026 64.64 8.73676 65.3474 8.73541C66.1079 8.7372 66.6889 9.00396 67.1258 9.54698L67.2027 9.64325L67.8923 8.97552L67.9684 8.90198L67.8993 8.82205C67.2491 8.06646 66.3864 7.68429 65.3474 7.68552C64.3338 7.68463 63.4702 8.03321 62.7824 8.72276C62.0911 9.41097 61.7448 10.2812 61.7461 11.3061C61.7448 12.331 62.0911 13.2013 62.7824 13.8899C63.4702 14.579 64.3338 14.9272 65.3474 14.9263V14.8143" fill="#282739"/>
<path d="M71.505 14.6641H70.6415V8.77275H68.7656V7.94764H73.3809V8.77275H71.505V14.6641Z" fill="#282739"/>
<path d="M71.5037 14.6644V14.5525H70.7521V8.66118H68.8762V8.05995H73.2676V8.66118H71.3917V14.6644H71.5037V14.5525V14.6644H71.6156V8.88506H73.4915V7.94801V7.83607H68.6523V8.77312V8.88506H70.5282V14.7764H71.5037H71.6156V14.6644H71.5037" fill="#282739"/>
<path d="M75.2519 12.0369H77.4837L76.3862 9.0076H76.349L75.2519 12.0369ZM73.3477 14.6641L75.8807 7.94764H76.8554L79.388 14.6641H78.4317L77.7841 12.8437H74.9612L74.3044 14.6641H73.3477Z" fill="#282739"/>
<path d="M75.2536 12.0373V12.1492H77.6451L76.4661 8.89603H76.3507H76.272L75.0941 12.1492H75.2536V12.0373L75.359 12.0758L76.4562 9.04603L76.3507 9.00797V9.11991H76.3879V9.00797L76.2825 9.04603L77.3258 11.9254H75.2536V12.0373L75.359 12.0758L75.2536 12.0373ZM73.3494 14.6644L73.4543 14.7038L75.9598 8.05995H76.7792L79.2279 14.5525H78.5122L77.8649 12.7321H74.8842L74.2273 14.5525H73.3494V14.6644L73.4543 14.7038L73.3494 14.6644V14.7764H74.3061H74.3848L75.0416 12.956H77.7071L78.3543 14.7764H79.3898H79.5515L76.9345 7.83607H75.8825H75.805L73.1875 14.7764H73.3494V14.6644" fill="#282739"/>
<path d="M80.3672 14.6641V7.94764H85.2265V14.6641H84.363V8.77275H81.2299V14.6641H80.3672Z" fill="#282739"/>
<path d="M80.3658 14.6644H80.4778V8.05995H85.1132V14.5525H84.4736V8.66118H81.1166V14.5525H80.3658V14.6644H80.4778H80.3658V14.7764H81.2286H81.3405V8.88506H84.2497V14.7764H85.2252H85.3371V7.83607H80.2539V14.7764H80.3658V14.6644" fill="#282739"/>
<path d="M86.7656 14.6641V7.94764H87.6285V10.8271H90.9867V7.94764H91.8497V14.6641H90.9867V11.6338H87.6285V14.6641H86.7656Z" fill="#282739"/>
<path d="M86.7643 14.6644H86.8762V8.05995H87.5152L87.5147 10.9394H91.0973V8.05995H91.7365V14.5525H91.0968L91.0973 11.5223H87.5147V14.5525H86.7643V14.6644H86.8762H86.7643V14.7764H87.6271H87.7391V11.7461H90.873V14.7764H91.8484H91.9603V7.83607H90.9853H90.873V10.7155H87.7386L87.7391 7.83607H86.7643H86.6523V14.7764H86.7643V14.6644Z" fill="#282739"/>
<path d="M94.5915 13.2337C95.0891 13.737 95.6964 13.9884 96.4157 13.9884C97.1355 13.9884 97.7441 13.737 98.2405 13.2337C98.7376 12.7304 98.9874 12.0871 98.9874 11.3058C98.9874 10.5244 98.7376 9.88109 98.2405 9.37781C97.7441 8.87452 97.1355 8.62311 96.4157 8.62311C95.6964 8.62311 95.0891 8.87452 94.5915 9.37781C94.0952 9.88109 93.8459 10.5244 93.8459 11.3058C93.8459 12.0871 94.0952 12.7304 94.5915 13.2337ZM98.8789 13.796C98.2187 14.475 97.3979 14.814 96.4157 14.814C95.4346 14.814 94.6134 14.475 93.9544 13.796C93.2942 13.1177 92.9648 12.2875 92.9648 11.3058C92.9648 10.324 93.2942 9.49366 93.9544 8.81553C94.6134 8.13639 95.4346 7.7971 96.4157 7.7971C97.3922 7.7971 98.2107 8.13818 98.8745 8.8199C99.537 9.50161 99.8684 10.3302 99.8684 11.3058C99.8684 12.2875 99.5383 13.1177 98.8789 13.796Z" fill="#282739"/>
<path d="M94.5901 13.2341L94.5105 13.3128C95.0261 13.8362 95.6693 14.1021 96.4144 14.1007C97.1599 14.1021 97.804 13.8362 98.3187 13.3128C98.8378 12.7889 99.0988 12.1111 99.098 11.3061C99.0988 10.5012 98.8378 9.82336 98.3187 9.29948C97.804 8.77604 97.1599 8.51019 96.4144 8.51153C95.6693 8.51019 95.0261 8.77604 94.5105 9.29948C93.9928 9.82336 93.7318 10.5012 93.7327 11.3061C93.7318 12.1111 93.9928 12.7889 94.5105 13.3128L94.5901 13.2341L94.6697 13.1554C94.1948 12.6721 93.9574 12.0643 93.9565 11.3061C93.9574 10.5479 94.1948 9.94011 94.6697 9.45687C95.149 8.97373 95.7214 8.73675 96.4144 8.73541C97.108 8.73675 97.6817 8.97373 98.1596 9.45687L98.1626 9.46045L98.1596 9.45687C98.6353 9.94011 98.8727 10.5479 98.8741 11.3061C98.8727 12.0643 98.6353 12.6721 98.1596 13.1554C97.6817 13.6385 97.108 13.8755 96.4144 13.8768C95.7214 13.8755 95.149 13.6385 94.6697 13.1554L94.5901 13.2341ZM98.8775 13.7963L98.7971 13.7185C98.1556 14.3762 97.3707 14.701 96.4144 14.7024C95.4585 14.701 94.6736 14.3762 94.0331 13.7185L94.03 13.7151L94.0331 13.7185C93.3925 13.0587 93.0763 12.2629 93.0754 11.3061C93.0763 10.3494 93.3925 9.55358 94.0331 8.89369C94.6736 8.23604 95.4585 7.91075 96.4144 7.9094C97.3647 7.91075 98.1478 8.23739 98.7931 8.89851C99.4359 9.56142 99.7538 10.356 99.7552 11.3061C99.7538 12.2629 99.4368 13.0587 98.7971 13.7185L98.8775 13.7963L98.958 13.8741C99.6366 13.1772 99.9799 12.3127 99.979 11.3061C99.9799 10.3053 99.6354 9.44254 98.9537 8.74246C98.2715 8.0397 97.4166 7.68429 96.4144 7.68552C95.4074 7.68429 94.5504 8.03802 93.8726 8.7381V8.73765C93.1927 9.43504 92.8507 10.2996 92.8516 11.3061C92.8507 12.3127 93.1927 13.1772 93.8726 13.8746V13.8741C94.5504 14.5742 95.4074 14.9272 96.4144 14.9263C97.4219 14.9272 98.2789 14.5742 98.958 13.8741L98.8775 13.7963" fill="#282739"/>
<path d="M103.398 14.6641V7.94764H104.26V10.8271H107.619V7.94764H108.483V14.6641H107.619V11.6338H104.26V14.6641H103.398Z" fill="#282739"/>
<path d="M103.397 14.6644H103.509V8.05995H104.147V10.9394H107.729V8.05995H108.369V14.5525H107.729V11.5223H104.147V14.5525H103.397V14.6644H103.509H103.397V14.7764H104.259H104.371V11.7461H107.505V14.7764H108.481H108.593V7.83607H107.617H107.505V10.7155H104.371V7.83607H103.397H103.285V14.7764H103.397V14.6644Z" fill="#282739"/>
<path d="M111.361 12.0369H113.593L112.496 9.0076H112.459L111.361 12.0369ZM109.457 14.6641L111.99 7.94764H112.965L115.498 14.6641H114.541L113.894 12.8437H111.07L110.414 14.6641H109.457Z" fill="#282739"/>
<path d="M111.359 12.0373V12.1492H113.752L112.573 8.89603H112.458H112.379L111.2 12.1492H111.359V12.0373L111.465 12.0758L112.563 9.04603L112.458 9.00797V9.11991H112.494V9.00797L112.389 9.04603L113.433 11.9254H111.359V12.0373L111.465 12.0758L111.359 12.0373ZM109.455 14.6644L109.561 14.7038L112.066 8.05995H112.886L115.334 14.5525H114.619L113.971 12.7321H110.99L110.333 14.5525H109.455V14.6644L109.561 14.7038L109.455 14.6644V14.7764H110.412H110.491L111.148 12.956H113.813L114.46 14.7764H115.497H115.658L113.041 7.83607H111.988H111.911L109.293 14.7764H109.455V14.6644" fill="#282739"/>
</g>
<defs>
<linearGradient id="paint0_linear_334_29178" x1="24.626" y1="9.8619" x2="5.83963" y2="28.6483" gradientUnits="userSpaceOnUse">
<stop stop-color="#00A0FF"/>
<stop offset="0.00657445" stop-color="#00A1FF"/>
<stop offset="0.2601" stop-color="#00BEFF"/>
<stop offset="0.5122" stop-color="#00D2FF"/>
<stop offset="0.7604" stop-color="#00DFFF"/>
<stop offset="1" stop-color="#00E3FF"/>
</linearGradient>
<linearGradient id="paint1_linear_334_29178" x1="38.0973" y1="22.5018" x2="11.0111" y2="22.5018" gradientUnits="userSpaceOnUse">
<stop stop-color="#FFE000"/>
<stop offset="0.4087" stop-color="#FFBD00"/>
<stop offset="0.7754" stop-color="#FFA500"/>
<stop offset="1" stop-color="#FF9C00"/>
</linearGradient>
<linearGradient id="paint2_linear_334_29178" x1="28.013" y1="25.0703" x2="2.53728" y2="50.546" gradientUnits="userSpaceOnUse">
<stop stop-color="#FF3A44"/>
<stop offset="1" stop-color="#C31162"/>
</linearGradient>
<linearGradient id="paint3_linear_334_29178" x1="8.38964" y1="0.309262" x2="19.7656" y2="11.6852" gradientUnits="userSpaceOnUse">
<stop stop-color="#32A071"/>
<stop offset="0.0685" stop-color="#2DA771"/>
<stop offset="0.4762" stop-color="#15CF74"/>
<stop offset="0.8009" stop-color="#06E775"/>
<stop offset="1" stop-color="#00F076"/>
</linearGradient>
<linearGradient id="paint4_linear_334_29178" x1="38.096" y1="22.5019" x2="11.0097" y2="22.5019" gradientUnits="userSpaceOnUse">
<stop stop-color="#CCB300"/>
<stop offset="0.4087" stop-color="#CC9700"/>
<stop offset="0.7754" stop-color="#CC8400"/>
<stop offset="1" stop-color="#CC7D00"/>
</linearGradient>
<linearGradient id="paint5_linear_334_29178" x1="28.0122" y1="25.0703" x2="2.53651" y2="50.546" gradientUnits="userSpaceOnUse">
<stop stop-color="#CC2E36"/>
<stop offset="1" stop-color="#9C0E4E"/>
</linearGradient>
<linearGradient id="paint6_linear_334_29178" x1="24.626" y1="9.86189" x2="5.83966" y2="28.6483" gradientUnits="userSpaceOnUse">
<stop stop-color="#008DE0"/>
<stop offset="0.00657445" stop-color="#008DE0"/>
<stop offset="0.2601" stop-color="#00A7E0"/>
<stop offset="0.5122" stop-color="#00B8E0"/>
<stop offset="0.7604" stop-color="#00C4E0"/>
<stop offset="1" stop-color="#00C7E0"/>
</linearGradient>
<linearGradient id="paint7_linear_334_29178" x1="28.0127" y1="25.0707" x2="2.53735" y2="50.5472" gradientUnits="userSpaceOnUse">
<stop stop-color="#E0333C"/>
<stop offset="1" stop-color="#AB0F56"/>
</linearGradient>
<linearGradient id="paint8_linear_334_29178" x1="38.0986" y1="22.5016" x2="11.0124" y2="22.5016" gradientUnits="userSpaceOnUse">
<stop stop-color="#E0C500"/>
<stop offset="0.4087" stop-color="#E0A600"/>
<stop offset="0.7754" stop-color="#E09100"/>
<stop offset="1" stop-color="#E08900"/>
</linearGradient>
<linearGradient id="paint9_linear_334_29178" x1="38.0951" y1="22.5016" x2="11.0089" y2="22.5016" gradientUnits="userSpaceOnUse">
<stop stop-color="#FFE840"/>
<stop offset="0.4087" stop-color="#FFCE40"/>
<stop offset="0.7754" stop-color="#FFBC40"/>
<stop offset="1" stop-color="#FFB540"/>
</linearGradient>
<linearGradient id="paint10_linear_334_29178" x1="24.626" y1="9.86147" x2="5.83965" y2="28.6479" gradientUnits="userSpaceOnUse">
<stop stop-color="#40B8FF"/>
<stop offset="0.00657445" stop-color="#40B9FF"/>
<stop offset="0.2601" stop-color="#40CEFF"/>
<stop offset="0.5122" stop-color="#40DDFF"/>
<stop offset="0.7604" stop-color="#40E7FF"/>
<stop offset="1" stop-color="#40EAFF"/>
</linearGradient>
<linearGradient id="paint11_linear_334_29178" x1="8.38943" y1="0.309418" x2="19.7654" y2="11.6854" gradientUnits="userSpaceOnUse">
<stop stop-color="#65B895"/>
<stop offset="0.0685" stop-color="#62BD95"/>
<stop offset="0.4762" stop-color="#50DB97"/>
<stop offset="0.8009" stop-color="#44ED98"/>
<stop offset="1" stop-color="#40F498"/>
</linearGradient>
<clipPath id="clip0_334_29178">
<rect width="151.455" height="45" fill="white"/>
</clipPath>
</defs>
</svg>
