<svg width="35" height="24" viewBox="0 0 35 24" fill="none" xmlns="http://www.w3.org/2000/svg">
<rect x="0.243409" y="0.243409" width="33.5905" height="22.8805" rx="2.6775" fill="white" stroke="#EAEBED" stroke-width="0.486818"/>
<path fill-rule="evenodd" clip-rule="evenodd" d="M9.73828 11.2624C9.73828 15.0323 12.8128 18.1068 16.6193 18.1068C17.0865 18.1068 17.5537 18.0659 18.0906 18.0189C18.6892 17.9665 19.3744 17.9065 20.2428 17.8872C21.5605 17.8872 22.9879 18.363 24.5618 19.7538C24.7082 19.9002 24.9278 19.7172 24.7814 19.5342C23.2075 17.5944 21.7801 17.2284 20.3526 16.899C18.5958 16.4963 17.6807 15.5447 17.0585 14.4467C16.9487 14.2271 16.8755 14.2637 16.8755 14.5565C16.8389 14.9957 16.8755 15.3983 16.9487 15.8009H16.7291C14.2402 15.8009 12.1906 13.7512 12.1906 11.2624C12.1906 8.77349 14.2402 6.72382 16.7291 6.72382C19.218 6.72382 21.2677 8.77349 21.2677 11.2624C21.2677 11.4088 21.2677 11.5918 21.2311 11.7748C20.865 11.7016 20.2428 11.7016 19.767 11.7382C19.584 11.7382 19.584 11.8114 19.7304 11.848C21.1944 12.1408 22.2193 13.0558 22.4755 14.7395C22.4755 14.8127 22.5121 14.8127 22.5487 14.7761C23.1343 13.7512 23.5003 12.5434 23.5003 11.2624C23.5003 7.45585 20.4258 4.38135 16.6193 4.38135C12.8128 4.38135 9.73828 7.49245 9.73828 11.2624ZM21.597 14.0807C21.8532 14.1905 21.963 14.5565 21.963 14.7395C21.9996 15.0323 21.9264 15.1787 21.8166 15.1787C21.7068 15.1787 21.5604 15.0689 21.414 14.8127C21.2676 14.5565 21.1944 14.3003 21.2676 14.1539C21.3774 14.0807 21.4872 14.0441 21.597 14.0807ZM20.0964 15.2153C20.2428 15.2153 20.4258 15.2885 20.6088 15.4349C20.9016 15.6911 21.0114 15.9839 20.865 16.2035C20.7918 16.3133 20.6088 16.3865 20.4624 16.3865C20.2794 16.3865 20.0964 16.3133 19.9866 16.2035C19.6938 15.9473 19.6206 15.5813 19.8036 15.3617C19.8402 15.2885 19.95 15.2153 20.0964 15.2153Z" fill="#F28A1A"/>
</svg>
