<svg width="40" height="40" viewBox="0 0 40 40" fill="none" xmlns="http://www.w3.org/2000/svg">
<rect width="40" height="40" rx="5" fill="white" fill-opacity="0.2"/>
<g clip-path="url(#clip0_47_37)">
<path d="M27.6235 18.1782L26.3938 17.9109C26.2869 17.5835 26.1544 17.2642 25.998 16.9565L26.6788 15.8976C26.8004 15.7084 26.7737 15.46 26.6147 15.301L24.699 13.3853C24.54 13.2263 24.2916 13.1996 24.1024 13.3212L23.0435 14.002C22.7358 13.8456 22.4165 13.7131 22.0891 13.6062L21.8218 12.3765C21.774 12.1567 21.5795 12 21.3546 12H18.6454C18.4205 12 18.226 12.1567 18.1782 12.3765L17.9109 13.6062C17.5835 13.7131 17.2642 13.8456 16.9565 14.002L15.8976 13.3212C15.7084 13.1996 15.46 13.2263 15.301 13.3853L13.3853 15.301C13.2263 15.46 13.1996 15.7084 13.3212 15.8976L14.002 16.9565C13.8456 17.2642 13.7131 17.5835 13.6062 17.9109L12.3765 18.1782C12.1567 18.2261 12 18.4205 12 18.6454V21.3546C12 21.5795 12.1567 21.7739 12.3765 21.8218L13.6062 22.0891C13.7131 22.4165 13.8456 22.7358 14.002 23.0435L13.3212 24.1024C13.1996 24.2916 13.2263 24.54 13.3853 24.699L15.301 26.6147C15.46 26.7737 15.7084 26.8004 15.8976 26.6788L16.9565 25.998C17.2642 26.1544 17.5835 26.2869 17.9109 26.3938L18.1782 27.6235C18.226 27.8433 18.4205 28 18.6454 28H21.3546C21.5795 28 21.774 27.8433 21.8218 27.6235L22.0891 26.3938C22.4165 26.2869 22.7358 26.1544 23.0435 25.998L24.1024 26.6788C24.2916 26.8004 24.54 26.7738 24.699 26.6147L26.6147 24.699C26.7737 24.54 26.8004 24.2916 26.6788 24.1024L25.998 23.0435C26.1544 22.7358 26.2869 22.4165 26.3938 22.0891L27.6235 21.8218C27.8433 21.7739 28 21.5795 28 21.3546V18.6454C28 18.4205 27.8433 18.2261 27.6235 18.1782V18.1782ZM22.8685 20C22.8685 21.5817 21.5817 22.8685 20 22.8685C18.4183 22.8685 17.1315 21.5817 17.1315 20C17.1315 18.4183 18.4183 17.1315 20 17.1315C21.5817 17.1315 22.8685 18.4183 22.8685 20V20Z" fill="white"/>
</g>
<defs>
<clipPath id="clip0_47_37">
<rect width="16" height="16" fill="white" transform="translate(12 12)"/>
</clipPath>
</defs>
</svg>
