<svg width="40" height="40" viewBox="0 0 40 40" fill="none" xmlns="http://www.w3.org/2000/svg">
<rect width="40" height="40" rx="5" fill="white" fill-opacity="0.2"/>
<path d="M24.7433 13.9647C23.4763 12.6978 21.7918 12 20.0001 12C18.2084 12 16.5238 12.6977 15.2568 13.9647C13.9899 15.2317 13.2921 16.9161 13.2921 18.7078C13.2921 20.4996 13.9899 22.1841 15.2568 23.451L19.6686 27.8627C19.7602 27.9543 19.8801 28 20.0001 28C20.12 28 20.24 27.9542 20.3315 27.8627L24.7432 23.4511C26.0102 22.1841 26.7079 20.4996 26.7079 18.7079C26.7079 16.9161 26.0102 15.2316 24.7433 13.9647ZM22.1067 20.8144C21.544 21.3771 20.7959 21.687 20.0001 21.687C19.2043 21.687 18.4562 21.3771 17.8935 20.8144C17.3308 20.2518 17.0209 19.5036 17.0209 18.7078C17.0209 17.9121 17.3308 17.164 17.8935 16.6012C18.4562 16.0385 19.2043 15.7287 20.0001 15.7287C20.7959 15.7287 21.544 16.0385 22.1067 16.6012C22.6694 17.1639 22.9793 17.912 22.9793 18.7078C22.9793 19.5036 22.6694 20.2518 22.1067 20.8144Z" fill="white"/>
</svg>
