<svg width="11" height="12" viewBox="0 0 11 12" fill="none" xmlns="http://www.w3.org/2000/svg">
<path d="M10.9801 4.23541C10.9801 3.10831 10.5385 2.04593 9.73627 1.24384C8.93417 0.441742 7.8718 0 6.74478 0H4.23523C4.23523 0 4.23523 0 4.23514 0C3.10822 0 2.04584 0.441742 1.24384 1.24374C0.441742 2.04584 0 3.10831 0 4.23532V6.20792C0 7.08069 0.266235 7.92032 0.769958 8.63599C1.21436 9.26733 1.81201 9.76044 2.50882 10.0732V11.2062C2.50882 11.7921 2.83685 11.9999 3.11774 12C3.31842 12 3.5192 11.9009 3.71457 11.7057L4.97681 10.4432H6.74487C7.87189 10.4432 8.93427 10.0015 9.73636 9.1994C10.5385 8.39731 10.9802 7.33493 10.9802 6.20792L10.9801 4.23541ZM7.75635 7.57864L6.82434 8.51056C6.58081 8.75409 6.25616 8.88803 5.9101 8.88803C5.56403 8.88803 5.23938 8.754 4.99585 8.51056L2.06689 5.58151C1.5629 5.07733 1.5629 4.25711 2.06689 3.75302L2.9989 2.82111C3.06482 2.7551 3.15417 2.71811 3.24747 2.71811C3.34067 2.71811 3.43011 2.7551 3.49603 2.82111L4.82739 4.15247C4.89331 4.21838 4.9303 4.30783 4.9303 4.40103C4.9303 4.49423 4.89331 4.58368 4.8273 4.6496L4.5434 4.9335L5.64386 6.03397L5.92786 5.74997C6.06519 5.61273 6.28775 5.61273 6.42499 5.75006L7.75635 7.08142C7.82236 7.14734 7.85934 7.23679 7.85934 7.32999C7.85934 7.42328 7.82236 7.51273 7.75635 7.57864ZM5.22382 3.41299C5.22382 3.2189 5.3812 3.06143 5.57538 3.06143C6.79349 3.06143 7.78455 4.0524 7.78455 5.27042C7.78455 5.4646 7.62717 5.62198 7.43298 5.62198C7.23889 5.62198 7.08142 5.4646 7.08142 5.27042C7.08142 4.44012 6.40585 3.76456 5.57538 3.76456C5.3812 3.76456 5.22382 3.60718 5.22382 3.41299ZM8.93912 5.62216C8.74493 5.62216 8.58755 5.46469 8.58755 5.2706C8.58765 4.46594 8.27426 3.70953 7.70535 3.14053C7.13635 2.57162 6.37994 2.25824 5.57529 2.25824C5.3812 2.25824 5.22372 2.10086 5.22372 1.90668C5.22372 1.71259 5.3812 1.55511 5.57529 1.55511C6.56772 1.55511 7.50073 1.94165 8.20248 2.6434C8.90433 3.34515 9.29077 4.27817 9.29068 5.2706C9.29068 5.46469 9.1333 5.62216 8.93912 5.62216Z" fill="#8E24AA"/>
</svg>
