<svg width="40" height="40" viewBox="0 0 40 40" fill="none" xmlns="http://www.w3.org/2000/svg">
<rect width="40" height="40" rx="5" fill="#6F73EE" fill-opacity="0.1"/>
<g clip-path="url(#clip0_49_33)">
<path d="M26.1912 12.5007H13.8096C12.8116 12.5007 12 13.312 12 14.3112V25.6907C12 26.6887 12.8116 27.4992 13.8096 27.4992H26.1912C27.1892 27.4992 27.9999 26.6887 27.9999 25.6907V14.3112C28 13.312 27.1893 12.5007 26.1912 12.5007ZM22.3464 15.1933C23.3116 15.1933 24.0943 15.9761 24.0943 16.9412C24.0943 17.9063 23.3115 18.6891 22.3464 18.6891C21.381 18.6891 20.5985 17.9063 20.5985 16.9412C20.5985 15.9761 21.381 15.1933 22.3464 15.1933ZM25.6237 25.8264H19.9998H14.6265C14.1438 25.8264 13.9288 25.4771 14.1464 25.0462L17.1461 19.1048C17.3635 18.674 17.7777 18.6355 18.071 19.0188L21.0873 22.9607C21.3807 23.344 21.8934 23.3767 22.2328 23.0332L22.9707 22.286C23.3097 21.9425 23.8094 21.985 24.0861 22.3803L25.9969 25.1097C26.2731 25.5056 26.1064 25.8264 25.6237 25.8264Z" fill="#6F73EE"/>
</g>
<defs>
<clipPath id="clip0_49_33">
<rect width="16" height="16" fill="white" transform="translate(12 12)"/>
</clipPath>
</defs>
</svg>
