<svg width="35" height="24" viewBox="0 0 35 24" fill="none" xmlns="http://www.w3.org/2000/svg">
<rect x="0.243409" y="0.243409" width="33.5905" height="22.8805" rx="2.6775" fill="white" stroke="#EAEBED" stroke-width="0.486818"/>
<path fill-rule="evenodd" clip-rule="evenodd" d="M12.8206 15.7325C12.9731 15.6533 13.2324 15.5493 13.507 15.5493C14.1375 15.5493 14.4782 15.975 14.4782 16.7671C14.4782 17.6925 14.0207 18.143 13.2834 18.143C13.0138 18.143 12.5968 18.0588 12.2917 17.9002V14.4456L12.8206 14.3218V15.7325ZM12.8155 17.7172C12.9781 17.7866 13.1562 17.7964 13.2834 17.7964C13.6596 17.7964 13.9444 17.5688 13.9444 16.7672C13.9444 16.1384 13.7105 15.9355 13.3698 15.9355C13.1663 15.9355 13.019 15.9899 12.8155 16.0988V17.7172ZM7.39966 15.6134H7.43527L8.12668 18.0834H8.67582L9.4997 14.574H8.9047L8.38605 17.1925H8.35062L7.64365 14.574H7.1911L6.53009 17.1925H6.49448L5.92493 14.574H5.35547L6.17926 18.0834H6.7283L7.39966 15.6134ZM11.753 17.9151V17.539C11.4733 17.7023 11.2192 17.7963 10.9446 17.7963C10.4208 17.7963 10.1717 17.5339 10.1717 16.94H11.8293V16.757C11.8293 15.9503 11.4377 15.5493 10.8022 15.5493C10.0395 15.5493 9.64793 16.0938 9.64793 16.846C9.64793 17.6282 9.99876 18.143 10.853 18.143C11.2192 18.143 11.5242 18.044 11.753 17.9151ZM11.3462 16.6085H10.1821C10.2378 16.1137 10.4767 15.881 10.787 15.881C11.0616 15.881 11.3211 16.0887 11.3462 16.6085ZM16.8174 17.3409H16.7919L15.6529 14.574H15.0376V18.0834H15.4953V15.5987H15.541L16.5785 18.0834H16.9038L17.9411 15.5393H17.987V18.0834H18.5361V14.574H17.9055L16.8174 17.3409ZM19.0956 16.846C19.0956 15.9798 19.5838 15.5493 20.2549 15.5493C20.9262 15.5493 21.4145 15.9798 21.4145 16.846C21.4145 17.6925 20.9517 18.143 20.2549 18.143C19.5582 18.143 19.0956 17.6925 19.0956 16.846ZM20.8803 16.8461C20.8803 16.178 20.6005 15.896 20.2548 15.896C19.9191 15.896 19.6293 16.178 19.6293 16.8461C19.6293 17.5245 19.8939 17.7964 20.2548 17.7964C20.6158 17.7964 20.8803 17.5245 20.8803 16.8461ZM23.1938 15.5493C22.6093 15.5493 22.1261 15.7819 21.8973 15.9155V18.0835H22.4262V16.1235C22.5838 16.0345 22.8431 15.9452 23.0467 15.9452C23.3059 15.9452 23.5041 16.0146 23.5041 16.4056V18.0835H24.0329V16.2916C24.0329 15.7819 23.8043 15.5493 23.1938 15.5493ZM26.6107 17.539V17.9151C26.382 18.044 26.0771 18.143 25.7108 18.143C24.8567 18.143 24.5058 17.6282 24.5058 16.846C24.5058 16.0938 24.8974 15.5493 25.66 15.5493C26.2958 15.5493 26.6875 15.9503 26.6875 16.757V16.94H25.0297C25.0297 17.5339 25.2788 17.7963 25.8025 17.7963C26.0771 17.7963 26.3313 17.7023 26.6107 17.539ZM25.0398 16.6085H26.2042C26.1789 16.0887 25.9193 15.881 25.6448 15.881C25.3345 15.881 25.0958 16.1137 25.0398 16.6085ZM29.2095 15.6334H28.6654L28.0855 17.4548H28.0552L27.4044 15.6334H26.845L27.8213 18.1083C27.6991 18.4744 27.4858 18.742 27.14 18.742V19.1476C27.7245 19.1476 28.0347 18.7914 28.2891 18.1083L29.2095 15.6334Z" fill="#0068A3"/>
<path fill-rule="evenodd" clip-rule="evenodd" d="M16.941 4.19922C17.6408 4.19922 18.3035 4.35784 18.8938 4.63945C18.9865 4.68226 19.0789 4.72936 19.1717 4.78136L18.7614 5.13878L18.145 4.51839L17.1046 5.42162L16.4867 4.76516L14.5487 6.46552L15.7911 7.79831L15.3029 8.21631L16.5266 9.55111L16.0412 9.96815L17.7899 11.8628L18.8279 10.9326L19.7254 11.9294C19.5469 12.0645 19.3524 12.1916 19.1382 12.309C18.4892 12.6693 17.7392 12.8755 16.941 12.8755C14.4864 12.8755 12.4844 10.9265 12.4844 8.53749C12.4844 6.14793 14.4864 4.19922 16.941 4.19922ZM16.1289 8.26308L17.1887 7.33411L18.143 8.36594L17.0833 9.29456L16.1289 8.26308ZM17.9423 9.11689L16.8825 10.0456L17.8369 11.0774L18.8967 10.1485L17.9423 9.11689ZM15.3705 6.50143L16.4303 5.57272L17.3843 6.60429L16.3246 7.53299L15.3705 6.50143ZM18.1102 5.30507L17.3153 6.00153L18.0309 6.77547L18.8258 6.07874L18.1102 5.30507ZM18.7275 9.19226L19.5226 8.49554L20.2382 9.26938L19.4434 9.96593L18.7275 9.19226ZM20.2215 10.0582L19.4269 10.755L20.1425 11.5284L20.9373 10.8319L20.2215 10.0582ZM19.7469 7.17335L20.2768 6.70895L20.7538 7.22473L20.2242 7.68904L19.7469 7.17335ZM19.5998 5.17647L19.0699 5.64078L19.5469 6.15656L20.0769 5.69225L19.5998 5.17647ZM20.4244 8.70583L20.9543 8.24143L21.4314 8.75712L20.9015 9.22152L20.4244 8.70583ZM18.8427 6.86061L18.0479 7.55742L18.7637 8.33083L19.5583 7.63428L18.8427 6.86061Z" fill="#0068A3"/>
</svg>
